<?xml version="1.0" encoding="UTF-8" standalone="no"?>
<svg
   xmlns:dc="http://purl.org/dc/elements/1.1/"
   xmlns:cc="http://creativecommons.org/ns#"
   xmlns:rdf="http://www.w3.org/1999/02/22-rdf-syntax-ns#"
   xmlns:svg="http://www.w3.org/2000/svg"
   xmlns="http://www.w3.org/2000/svg"
   xmlns:sodipodi="http://sodipodi.sourceforge.net/DTD/sodipodi-0.dtd"
   xmlns:inkscape="http://www.inkscape.org/namespaces/inkscape"
   enable-background="new 0 0 3488 3472"
   version="1.1"
   viewBox="0 0 3488 3472"
   id="svg93"
   sodipodi:docname="unicorn-1237449.svg"
   inkscape:version="0.92.4 (5da689c313, 2019-01-14)">
  <metadata
     id="metadata99">
    <rdf:RDF>
      <cc:Work
         rdf:about="">
        <dc:format>image/svg+xml</dc:format>
        <dc:type
           rdf:resource="http://purl.org/dc/dcmitype/StillImage" />
      </cc:Work>
    </rdf:RDF>
  </metadata>
  <defs
     id="defs97" />
  <sodipodi:namedview
     pagecolor="#ffffff"
     bordercolor="#666666"
     borderopacity="1"
     objecttolerance="10"
     gridtolerance="10"
     guidetolerance="10"
     inkscape:pageopacity="0"
     inkscape:pageshadow="2"
     inkscape:window-width="2560"
     inkscape:window-height="1361"
     id="namedview95"
     showgrid="false"
     inkscape:zoom="0.2718894"
     inkscape:cx="726.94916"
     inkscape:cy="1668.6319"
     inkscape:window-x="2391"
     inkscape:window-y="-9"
     inkscape:window-maximized="1"
     inkscape:current-layer="svg93" />
  <path
     d="M 1310.1908,2345.5674"
     stroke-miterlimit="10"
     id="path2"
     inkscape:connector-curvature="0"
     style="fill:none;stroke:#951b81;stroke-width:12.10639381;stroke-miterlimit:10" />
  <linearGradient
     id="d"
     x1="191.41"
     x2="1063.3"
     y1="1859.4"
     y2="1859.4"
     gradientUnits="userSpaceOnUse">
    <stop
       stop-color="#fff"
       offset="0"
       id="stop4" />
    <stop
       offset="1"
       id="stop6" />
  </linearGradient>
  <path
     d="m 929.07656,1460.7508 60.30701,-46.7637 c 0,0 -127.21852,-199.3605 -430.37759,-132.2357 -186.65938,41.2816 -271.54392,189.7393 -309.22227,297.5865 -0.54136,1.4544 -0.86617,2.7969 -1.40753,4.1393 -53.48591,132.0122 45.14906,323.5415 -77.30556,411.6988 -52.29495,37.7017 -77.955193,29.7586 -87.916135,22.8224 -0.757898,-0.5594 -1.624066,0.4476 -1.082711,1.1187 13.317346,17.3406 59.224296,62.7618 145.732906,8.6144 23.38656,-14.6556 -4.76393,112.8815 -48.07237,186.7188 -37.57008,46.5399 -85.425902,74.2847 -134.256168,80.5497 0,0 22.736931,20.1375 62.255888,0 1.8406,-1.0068 3.68122,-2.1256 5.52182,-3.4681 -30.965534,96.3241 -34.971564,188.6207 46.77312,215.8062 54.35209,18.1238 82.17776,-18.0118 86.83342,-50.903 5.41355,-38.1492 -43.52498,-82.6753 -58.4664,-76.4103 0,0 39.08588,17.7881 28.15049,58.1748 -5.30528,19.4662 -6.60454,31.6605 -39.62722,21.1443 -112.601946,-35.7999 122.34634,-275.771 122.34634,-275.771 0,0 14.18352,38.5968 26.41815,92.856 0,0 26.09333,131.0052 -46.23176,157.2957 0,0 43.20017,17.9 63.77168,-13.425 -0.32481,55.7136 33.56404,200.5913 2.38196,222.1831 -29.23319,20.1374 -61.17316,-15.7743 -29.23319,-53.6998 0,0 -92.57179,48.6654 -12.99253,97.3309 21.43767,13.0893 42.98362,5.4819 61.71452,-12.418 8.55342,20.2492 29.23319,30.8774 29.23319,30.8774 -14.72486,-18.5713 -4.76392,-55.378 4.00604,-78.8717 8.01206,-16.4456 14.18351,-34.1218 17.75646,-50.6792 10.39403,-47.6586 15.59104,-33.4505 31.07381,1.4544 6.388,14.4318 14.50832,32.3317 25.44371,50.903 13.8587,32.108 25.76852,70.7047 12.55944,88.9402 -18.62262,25.6194 28.04222,3.3563 49.80471,-17.5642 58.7912,42.1767 113.57639,22.3749 129.81705,1.6781 104.1568,-132.4597 -86.61688,-183.922 -86.61688,-183.922 0,0 127.32682,96.1003 36.81217,114.1122 -76.11458,15.1031 -108.81245,-150.9189 -113.25157,-185.4882 -19.27225,-149.0171 65.72056,-220.5049 94.4124,-240.0829 5.52183,-3.8038 12.66772,-3.6919 18.18954,0 0.10828,0 0.10828,0.1118 0.21655,0.1118 29.77455,20.3612 114.22601,115.119 7.03762,148.1221 0,0 -62.79724,-15.8863 -25.98506,-58.3986 36.81217,-42.5124 -80.12062,6.7125 -30.31591,69.3622 18.7309,23.4937 44.9325,24.9481 70.48449,17.6763 99.71768,-28.6399 126.89372,-162.2183 47.74755,-231.1331 -9.09477,-7.9431 -19.4888,-15.5506 -31.61516,-23.0461 -49.80471,-30.4299 -57.16714,-91.5136 -46.34003,-156.7365 0.32481,0.5594 0.54136,1.1188 0.86617,1.6781 41.14301,73.8373 108.2711,0 108.2711,0 -63.01378,0 -76.11459,-60.636 -76.98076,-113.8884 27.28432,-70.9285 165.76306,-22.5986 122.67116,-287.406 0,-0.1117 -0.10827,-0.2236 -0.10827,-0.3355 0.21654,0 0.21654,0 0.10827,0.3355 16.99856,-185.9356 178.43074,-108.5183 168.68634,-110.6439 z"
     stroke-miterlimit="10"
     id="path9"
     style="fill:#00ff00;stroke:#929282;stroke-width:12.10639381;stroke-miterlimit:10"
     inkscape:connector-curvature="0" />
  <path
     d="m 2068.0886,991.88409 c 0,0 85.5341,226.43431 -119.0983,324.43651 0,0 -63.8799,73.8372 -39.952,138.7246 0,0 -172.5841,107.064 -397.4633,-96.2122 0,0 -210.0458,-134.2497 -515.37035,46.9873 -305.32448,181.2369 -251.94682,670.6885 -116.93276,789.8351 56.30094,49.6723 30.85723,227.7767 4.65566,351.5101 -14.07525,66.6773 9.41958,135.704 60.41524,178.9994 19.59707,16.6694 35.94601,36.3594 41.03474,57.9511 13.75043,58.8461 138.15387,209.4294 118.88167,411.0275 -3.7895,40.163 8.5534,80.1023 34.5385,110.1965 6.821,7.9431 13.6422,16.3337 19.8136,24.7243 0,0 14.0753,63.2092 27.2844,82.116 29.2331,41.6174 190.3405,74.5086 218.491,11.8587 28.1505,-62.6498 -75.5733,-200.4794 -75.5733,-200.4794 l -83.3687,-223.9729 c 0,0 -34.322,-74.173 -71.892,-252.0537 -29.8828,-141.5214 136.6381,-401.8537 136.6381,-401.8537 0,0 174.4247,368.4032 205.7151,451.9735 34.1054,91.1779 253.3544,313.2491 270.6778,420.6487 16.6737,103.5959 64.9626,114.7835 68.4273,115.4547 0.1083,0 0.2166,0.1118 0.1083,0.2237 -0.8662,3.3562 -11.8016,48.1061 17.3234,80.326 30.3159,33.5624 214.0519,65.223 220.873,4.475 7.3625,-65.3348 -82.286,-147.6745 -82.286,-147.6745 l -138.587,-214.7994 -112.6019,-353.5238 37.57,-444.3662 c 0,0 459.0695,11.1875 552.1826,203.6119 93.1131,192.4244 118.0156,452.9804 74.1657,723.1577 -0.9744,5.8175 0,11.2993 2.2737,16.4457 12.776,29.4229 14.9414,62.6497 3.8978,92.7441 -7.0377,19.0186 -10.0692,40.0511 -1.9489,58.3984 21.6542,49.2249 236.1393,106.281 234.9482,43.2956 0,0 152.3375,63.8804 180.488,-18.9068 28.1505,-82.7872 -75.7897,-219.2744 -82.286,-257.3118 -6.4963,-38.0373 -36.8122,-700.3353 -6.4963,-742.8476 30.3159,-42.5124 153.7449,-308.774 151.5796,-458.6862 0,0 341.0539,-459.3572 199.8684,-818.9224 -121.2637,-308.77395 -295.1471,-559.37323 -795.3596,-449.73606 0,0 -67.128,-78.31226 -77.9551,-60.41232 -10.8271,17.89994 11.4768,98.44969 11.4768,98.44969 l -30.9657,15.66245 c 0,0 -110.4364,-105.16216 -119.0981,-87.26222 -8.6617,17.89994 36.0543,147.67455 36.0543,147.67455 0,0 -101.1252,91.62534 -62.1476,228.1124 z"
     id="path11"
     style="fill:#ff80e5;stroke-width:1.10058129"
     inkscape:connector-curvature="0" />
  <path
     d="m 2141.9295,1068.5182 c -15.4828,17.5643 -20.8964,41.7293 -10.6107,64.2161 10.5024,22.1512 28.6919,28.6399 35.8378,29.1993 64.313,3.8037 111.8441,-66.3417 119.2065,-77.6411 -54.2438,-36.1354 -127.4351,-34.793 -144.4336,-15.7743 z"
     id="path13"
     inkscape:connector-curvature="0"
     style="fill:#ffffff;stroke-width:1.10058129" />
  <path
     d="m 2218.3689,1150.6343 c 32.806,-46.0924 -15.158,-90.6185 -15.158,-90.6185 52.728,12.0825 68.6439,44.5261 68.6439,44.5261 l 14.7249,-19.9137 c 49.2633,-9.0618 57.3836,-72.1592 57.3836,-72.1592 -37.7866,67.5723 -83.0439,60.3005 -83.0439,60.3005 26.4181,-1.9019 38.5445,-65.4467 38.5445,-65.4467 -31.1821,56.7205 -65.6123,55.4898 -65.6123,55.4898 25.3355,-16.8931 16.2406,-56.7204 16.2406,-56.7204 0,0 -4.3308,51.4623 -54.4603,49.001 -50.1295,-2.573 -65.1792,26.85 -65.1792,26.85 -26.5264,61.8666 27.5009,78.536 27.5009,78.536 26.0933,11.0756 60.4153,-9.8449 60.4153,-9.8449 z"
     id="path15"
     inkscape:connector-curvature="0"
     style="fill:#442a19;stroke-width:1.10058129" />
  <path
     d="m 1975.3002,1414.5466 c 1.4076,-14.0963 -18.9474,-17.1169 -21.2212,-3.2444 -0.6496,3.6919 -0.5413,8.0549 0.3249,13.2012 1.191,6.9362 3.4646,11.8587 6.2797,15.215 8.6617,9.9568 23.4948,-1.9019 16.9985,-13.425 -1.8405,-3.2444 -2.9232,-7.0482 -2.3819,-11.7468 z"
     stroke-miterlimit="10"
     id="path17"
     inkscape:connector-curvature="0"
     style="fill:#ffffff;stroke:#929282;stroke-width:12.10639381;stroke-miterlimit:10" />
  <path
     d="M 2460.5713,1193.0348"
     stroke-miterlimit="10"
     id="path19"
     inkscape:connector-curvature="0"
     style="fill:none;stroke:#a3195b;stroke-width:12.10639381;stroke-miterlimit:10" />
  <path
     d="m 2068.0886,991.88409 c 0,0 80.4454,212.89751 -101.3419,315.15091 -14.1834,8.0549 -26.4181,19.4662 -35.188,33.4505 -16.8903,27.0737 -38.0032,72.6067 -22.6287,114.4478 0,0 -172.5841,107.064 -397.4632,-96.2122 0,0 -210.046,-134.2496 -515.37043,46.9873 -305.32447,181.2369 -251.94681,670.6885 -116.93275,789.8351 56.30094,49.6723 30.85723,227.7767 4.65566,351.5101 -14.07525,66.6774 9.41958,135.704 60.41524,178.9994 19.59707,16.6694 169.44428,262.6817 152.33738,460.4762 -3.7895,43.8548 11.3685,87.0384 41.0348,118.699 7.579,8.0549 14.8332,16.4455 20.8963,24.8361 0,0 11.2602,65.6704 27.2843,82.116 45.4739,46.6517 190.3406,74.5086 218.4911,11.8587 28.1506,-62.6498 -75.5732,-200.4794 -75.5732,-200.4794 l -97.444,-261.7866 c 0,0 -54.7852,-164.9032 -64.6378,-258.7661 -10.6106,-101.0228 143.3509,-357.3276 143.3509,-357.3276 0,0 186.0097,364.7114 205.7151,451.9735 12.2346,54.3711 253.3543,313.2491 270.6778,420.6487 17.3233,107.3997 68.5355,115.4547 68.5355,115.4547 0,0 -12.9924,46.9874 17.3235,80.5497 30.3159,33.5624 214.0519,65.223 220.873,4.475 7.3624,-65.3348 -82.286,-147.6745 -82.286,-147.6745 l -138.587,-214.7994 -95.82,-300.719 c -11.0436,-34.793 -15.2662,-71.5998 -12.1263,-108.1828 l 32.8061,-388.9882 c 0,0 459.0694,11.1875 552.1826,203.6119 93.1132,192.4244 119.6396,474.796 74.1657,723.1577 -1.4075,7.3837 0.5413,14.32 4.1143,20.4732 14.4001,24.948 16.6737,55.266 5.3052,81.8921 -9.2029,21.48 -14.5082,46.3161 -5.1969,67.3486 21.6542,49.2249 210.1542,106.2809 234.9483,43.2955 0,0 172.0428,54.4829 180.4879,-21.0324 13.5338,-121.0485 -75.7898,-219.2744 -82.2861,-257.3118 -2.2737,-12.9774 -7.2541,-99.1208 -11.6932,-208.4225 -8.4452,-210.2124 -14.8332,-506.4565 5.197,-534.4251 30.3159,-42.5124 153.745,-308.774 151.5795,-458.6862 0,0 341.054,-459.3572 199.8685,-818.9224 -121.2636,-308.77395 -295.147,-559.37323 -795.3595,-449.73606 0,0 -67.1281,-78.31226 -77.9552,-60.41232 -6.4963,10.73996 -0.9745,44.30236 4.4391,69.25041 3.573,16.44557 7.1459,29.19928 7.1459,29.19928 l -30.9656,15.66245 c 0,0 -110.4365,-105.16216 -119.0981,-87.26222 -8.6617,17.89994 36.0542,147.67455 36.0542,147.67455 0,0 -100.9086,91.62534 -61.931,228.1124 z"
     stroke-miterlimit="10"
     id="path21"
     inkscape:connector-curvature="0"
     style="fill:none;stroke:#929282;stroke-width:12.10639381;stroke-miterlimit:10" />
  <path
     d="m 1909.0383,1455.0452 c 86.8334,123.7334 157.8592,113.7765 208.6384,68.5791 57.0588,-50.791 88.6741,-145.9964 88.6741,-145.9964"
     stroke-miterlimit="10"
     id="path23"
     inkscape:connector-curvature="0"
     style="fill:none;stroke:#929282;stroke-width:12.10639381;stroke-miterlimit:10" />
  <path
     d="m 2552.6017,1019.629 c 28.1505,36.3593 33.3476,87.1504 30.0994,132.7952 -5.3053,74.8442 -55.4348,137.9414 -125.0532,159.1976 -68.2107,20.6968 -175.2908,45.0856 -217.9497,174.5245 -49.8047,151.0308 -122.0215,37.478 -122.0215,37.478"
     stroke-miterlimit="10"
     id="path25"
     inkscape:connector-curvature="0"
     style="fill:none;stroke:#929282;stroke-width:12.10639381;stroke-miterlimit:10" />
  <path
     d="M 1310.1908,2345.5674"
     id="path27"
     inkscape:connector-curvature="0"
     style="fill:#e1669f;stroke-width:1.10058129" />
  <path
     d="M 1310.1908,2345.5674"
     id="path29"
     inkscape:connector-curvature="0"
     style="fill:#e1669f;stroke-width:1.10058129" />
  <path
     d="m 1406.9852,3377.0517 c -59.4409,66.901 -243.1769,-22.2631 -243.1769,-22.2631 0,0 -6.2797,36.8068 22.1956,57.3917 0,0 141.2938,101.5822 218.4911,11.8587 z"
     id="path31"
     style="fill:#6c5353;stroke-width:1.10058129"
     inkscape:connector-curvature="0" />
  <polygon
     points="1224.4,1632 1203.7,1639 1210.7,1618.3 1197.6,1600.8 1219.5,1601 1232.1,1583.2 1238.6,1604 1259.5,1610.5 1241.7,1623.2 1242,1645 "
     stroke-miterlimit="10"
     id="polygon33"
     style="fill:#ffff00;stroke:#929282;stroke-width:11;stroke-miterlimit:10"
     transform="matrix(1.082711,0,0,1.1187466,-161.75474,-82.336316)" />
  <polygon
     points="1160.4,1503.4 1100.6,1447.6 1181.3,1434 1215.9,1359.9 1253.7,1432.5 1334.9,1442.5 1277.6,1500.9 1293.1,1581.2 1219.9,1544.7 1148.3,1584.3 "
     stroke-miterlimit="10"
     id="polygon35"
     style="fill:#ffff00;stroke:#929282;stroke-width:11;stroke-miterlimit:10"
     transform="matrix(1.082711,0,0,1.1187466,-161.75474,-82.336316)" />
  <polygon
     points="1046.1,1552.2 1011,1538.8 1043,1519.1 1044.9,1481.6 1073.5,1505.9 1109.8,1496.1 1095.5,1530.9 1116,1562.3 1078.5,1559.5 1054.9,1588.7 "
     stroke-miterlimit="10"
     id="polygon37"
     style="fill:#ffff00;stroke:#929282;stroke-width:11;stroke-miterlimit:10"
     transform="matrix(1.082711,0,0,1.1187466,-161.75474,-82.336316)" />
  <linearGradient
     id="e"
     x1="2290.3"
     x2="3327.3"
     y1="1272.9"
     y2="1272.9"
     gradientUnits="userSpaceOnUse">
    <stop
       stop-color="#fff"
       offset="0"
       id="stop39" />
    <stop
       offset="1"
       id="stop41" />
  </linearGradient>
  <path
     d="m 3363.9853,1447.2139 c -3.2481,-0.6712 -4.4391,4.1394 -1.2992,5.1462 45.4739,14.7676 38.5445,68.6911 9.5278,88.8285 -123.1041,85.4723 -165.6548,-99.4565 -165.6548,-99.4565 3.7895,-15.9981 -5.4135,-52.693 8.6618,-47.2112 114.7674,44.6381 211.5616,-95.9884 189.4744,-81.6684 -108.2711,70.481 -165.5465,-7.9431 -189.0413,-59.4055 47.964,28.5281 65.7205,0 65.7205,0 -53.0528,-8.2787 -92.3553,-80.9973 -93.2214,-82.5635 -10.6105,-30.318 -22.3039,-57.9511 -31.3986,-78.3122 21.5459,18.7949 56.1927,38.373 94.3041,13.5368 66.3702,-43.0717 16.0241,-128.09649 13.6422,-131.90022 -0.1083,-0.11189 -0.1083,-0.22377 -0.2165,-0.33565 -25.3355,-33.33857 -55.6515,-46.76352 -79.4711,-34.45738 -30.6407,15.77435 -20.6797,64.99925 17.6482,86.70285 2.1654,1.2307 6.6045,-1.6781 4.5473,-3.0206 -28.3669,-18.9068 -17.7564,-102.2534 36.3792,-33.33864 46.5565,59.29354 -18.4061,117.46834 -79.0379,48.10614 -66.4785,-76.07475 -65.504,-105.72157 -128.8426,-172.84635 -63.3386,-67.12477 76.1145,53.58794 133.1734,31.88423 61.7146,-23.49359 76.3312,-55.37792 102.3162,-36.91854 25.9851,18.45927 -1.624,52.02171 -1.624,52.02171 37.1369,-2.79692 55.2182,-55.37803 12.7759,-73.8373 -32.9144,-14.32001 -64.6378,-6.9363 -87.9161,5.25807 -22.8452,11.85873 -49.5882,12.0825 -72.3251,0 -39.0858,-20.80866 -83.3688,-47.65857 -132.9569,-42.73613 -4.3309,0.44752 55.8679,-36.69486 56.301,-36.9186 28.9083,-16.44558 91.9222,-16.66933 95.062,14.87932 3.2481,33.56237 -55.0018,19.80177 -55.0018,19.80177 0.1084,0 73.0831,30.8774 73.9493,-22.71051 0.7578,-41.72924 -78.4966,-44.19048 -85.859,-44.86173 -0.8662,-0.11187 -53.5943,-0.67125 -85.6425,-1.11875 -10.1774,-0.11187 -20.1385,-2.01375 -29.6663,-5.7056 l -22.1955,-8.50248 c 0,0 81.7446,-6.6006 86.6168,-68.69105 4.8722,-62.09043 -42.2256,-92.29658 -76.331,-78.87163 -16.4573,6.48874 -26.0934,21.59181 -30.2077,36.02364 -2.4903,8.83811 9.5278,13.98434 13.8587,5.92936 5.6301,-10.73997 23.8196,-30.54178 49.0468,-18.23557 29.2332,14.20809 57.0589,99.90407 -186.5511,82.33974 -4.3309,-0.33562 -5.7383,-6.26497 -1.9489,-8.61434 20.6798,-12.86559 63.0138,-38.82051 66.5867,-97.77845 4.3308,-70.81666 -33.2392,-78.31226 -72.2168,-74.84414 -4.8722,0.4475 -3.7895,8.50247 1.0827,8.61435 24.6858,0.67124 51.8618,10.96372 36.4873,57.27981 -19.8136,59.85295 -112.9267,59.6292 -155.8021,56.16108 -4.4391,-0.33562 -5.3052,-6.71247 -1.1909,-8.39059 68.7521,-27.63304 11.4767,-102.14156 11.9098,-101.47031 0,0 56.301,91.73721 -149.4142,96.2122 -175.8322,3.80373 -204.524,34.34552 -209.1797,43.18361 -0.6496,1.23062 -0.6496,2.79686 0,4.02749 6.1714,11.74684 43.525,81.89225 51.104,78.08852 38.9776,-19.57808 69.6183,-16.22183 90.9477,-7.27185 0,0 29.2331,44.07861 -10.8271,76.52227 -40.0603,32.44363 72.1086,8.50241 52.8363,-38.26114 17.2151,34.56929 23.3865,94.19847 -8.1203,131.56454 -45.6904,54.25922 -75.0319,59.62929 -93.8711,45.53305 -4.4391,-3.35621 -7.2542,-9.7331 -8.5534,-17.34057 -2.0572,-11.74685 -18.9475,-9.39746 -17.973,2.57304 0,0.44753 0.1082,0.89505 0.1082,1.45445 7.4708,76.18659 115.3088,35.24044 161.4323,-20.92054 13.9669,-17.00504 38.1114,-33.89808 43.9581,-13.87248 0.3247,1.1187 0.2165,2.34939 -0.3249,3.35621 -7.9037,15.88623 -38.5445,92.29658 32.3731,156.51269 23.4949,21.2562 55.0017,28.4161 74.274,24.2767 16.1323,-3.4681 28.9083,-11.4112 37.1369,-21.8155 16.0241,-20.2493 21.1129,-59.62914 -16.8902,-88.4929 -3.3565,-2.57305 -7.9039,1.00693 -6.4963,5.03442 6.1714,17.00493 12.9925,45.42108 -7.4707,50.56738 -30.2077,7.6075 -102.5327,-37.2543 -60.5236,-103.26037 30.2077,-47.43481 106.4306,-24.94805 127.2185,37.03053 12.343,36.69489 7.4708,77.08164 -13.1007,109.63714 -12.8843,20.2494 -29.1249,47.8823 -45.0408,79.2073 -6.388,11.7468 -35.1881,56.8323 -91.8139,42.1767 0,0 27.2843,36.4711 64.3131,17.1168 -38.5445,92.5203 -59.4409,195.7807 8.2286,237.9574 105.3477,65.6705 181.1375,-67.1247 144.3253,-129.7746 -20.3549,-34.5693 -42.7671,-34.9049 -58.2498,-23.158 -22.1956,17.0049 -21.7625,55.8254 -18.6227,80.9972 0.5414,4.8107 7.2542,5.1462 8.3369,0.4475 6.0632,-26.2905 18.7309,-64.3279 39.6272,-49.5604 30.8574,21.8155 -33.0227,156.8482 -87.6996,72.0472 -58.7912,-91.2896 65.6123,-235.9436 123.5374,-295.3491 3.4647,-3.58 8.9865,0.6713 6.7128,5.1463 -11.6932,22.9343 -22.4121,56.0492 -14.9414,92.2966 0,0 12.4511,57.056 52.5115,62.0904 37.7866,4.6987 63.122,-53.4761 24.794,-76.1867 -2.5985,-1.5662 -5.63,1.007 -4.6556,3.9156 4.8721,14.9912 11.585,46.9874 -20.0302,43.6312 -41.2513,-4.2512 -20.0301,-148.1221 20.5716,-128.544 40.6016,19.5781 90.9477,140.2908 90.9477,140.2908 0,0 51.9701,113.8884 -11.3685,152.597 -63.3386,38.7087 -81.3116,-26.8499 -58.4664,-46.8754 14.0753,-12.3062 36.3791,2.6849 44.4994,7.6075 2.382,1.4543 5.197,-0.8951 4.4391,-3.58 -3.4646,-11.9706 -21.979,-49.3368 -57.0589,-30.8774 -51.3204,26.8499 -22.7369,169.9375 86.0756,88.381 67.6695,-50.6793 58.0333,-142.0809 41.7927,-203.8357 -1.4076,-5.2581 5.8466,-7.8312 7.9037,-2.9087 20.4633,47.3229 44.3912,116.014 46.8814,184.2575 -0.1082,0.6713 -0.2165,1.2307 -0.3248,1.9019 0,0 -8.0121,64.8873 -94.0875,76.6342 0,0 53.5941,16.7811 84.4514,-5.0345 -20.1385,38.4849 -38.0032,73.6136 -62.2559,100.5754 -51.4288,57.1679 -163.4894,100.7991 -158.6171,40.3867 3.7895,-46.8755 50.5626,-27.2974 66.8032,-25.3955 3.3564,0.3356 -96.0364,-55.1542 -97.6605,20.3612 -1.1911,55.0423 66.5867,112.434 168.9028,26.8499 0,0 -57.2754,143.8708 -128.5177,126.5302 -3.2482,-1.2306 -6.9294,-2.4613 -11.1519,-4.0275 -8.6617,-4.1394 -16.8903,-7.6075 -24.9024,-10.5162 -73.5161,-36.3592 -70.9175,-90.171 -70.9175,-90.171 -14.6167,46.9874 8.1202,78.5361 8.1202,78.5361 -56.1927,0.5593 -88.2409,55.0423 -89.865,82.8991 -2.2736,40.163 9.0949,82.4516 63.88,85.1366 66.5867,3.3562 63.3386,-50.3436 63.3386,-50.3436 0,0 -24.361,45.3092 -60.0905,26.8499 -13.4255,-6.9363 -30.8572,-21.368 -17.8647,-54.9305 14.6166,-37.7017 120.1809,-78.3122 138.9118,34.9049 7.2542,43.743 -11.3685,84.801 -54.4603,102.2535 -116.2832,47.2111 -40.6017,72.1592 -40.6017,72.1592 0,0 -34.8633,-39.0443 69.8348,-55.3781 40.0604,-6.2649 44.3912,20.585 44.3912,20.585 0,0 30.5324,61.8667 -112.602,71.7116 -143.1343,9.845 -142.3765,88.8285 -112.0605,112.4341 88.2409,68.6911 79.5792,-45.4211 79.5792,-45.4211 0,0 3.2482,72.271 -55.2182,25.2837 0,0 -43.2002,-64.6636 73.083,-62.7618 -2.382,11.2994 10.0692,18.4594 16.8902,21.48 1.5158,0.6713 3.0317,-0.7832 2.5986,-2.3494 -4.1143,-12.9774 8.9864,-16.3336 21.6541,-16.7812 7.3625,0.5594 14.2918,1.0069 20.6799,1.3425 40.2768,2.1256 63.3386,-0.8949 85.4258,-29.3112 50.3462,52.5811 71.1341,71.7117 54.677,102.9247 -12.8843,24.3887 -44.3912,21.7038 -59.6574,18.795 -1.4075,-0.2238 -2.0572,1.6781 -0.7579,2.3493 18.0813,9.2856 63.2304,26.6262 88.5658,-15.5505 19.4887,-32.4437 -24.9024,-87.2623 -33.3476,-122.8384 -11.1519,-47.2111 53.7026,-32.8911 87.1582,-64.2161 4.1144,19.9138 59.7657,4.6988 38.1115,-3.1324 -21.6542,-7.8312 -16.782,-35.4643 -16.782,-35.4643 8.9865,-46.5399 -47.0979,-71.4879 -47.0979,-71.4879 44.4994,18.6831 79.1461,37.7018 105.7808,56.7205 0.2166,0.3356 23.0618,47.9942 -4.9804,59.1816 -28.1505,11.1875 50.8874,1.79 50.346,-18.683 90.4064,105.6096 -45.149,191.3057 -88.2409,138.277 -44.9326,-55.3779 29.4497,-82.004 29.4497,-82.004 0,0 -85.7507,-16.7813 -90.6229,57.056 -4.8722,73.8373 101.2335,103.484 162.4067,67.1248 118.5568,-70.481 58.0332,-160.8757 58.0332,-160.8757 37.6784,-7.1601 48.5056,-92.1847 44.1747,-74.2849 -23.2783,96.436 -105.9974,-15.5505 -123.3208,-31.213 -3.7895,-3.4681 -7.6872,-6.8243 -11.8016,-10.2924 48.3972,10.4043 57.1672,-37.2543 57.1672,-37.2543 -50.346,21.8156 -114.3343,-12.8655 -114.3343,-12.8655 -63.5551,-68.803 -23.0618,-104.491 -17.7565,-96.3241 25.9851,40.2748 166.7375,-20.1375 173.2338,24.6124 6.7128,46.3161 -16.782,47.0993 -46.4483,40.6105 -5.7384,-1.2306 -8.012,7.1599 -2.5985,9.2856 26.6347,10.0687 58.2498,11.7468 73.7327,-26.1787 38.1114,-93.1916 -89.6485,-95.4291 -89.6485,-95.4291 -106.6471,-23.9411 -21.6543,-133.3546 -21.6543,-133.3546 0,0 140.2111,158.9739 243.61,46.9874 67.7777,-73.3898 17.8647,-126.9777 -44.3912,-140.5146 z"
     stroke-miterlimit="10"
     id="path44"
     style="fill:#00ff00;stroke:#929282;stroke-width:12.10639381;stroke-miterlimit:10"
     inkscape:connector-curvature="0" />
  <linearGradient
     id="f"
     x1="1931.5"
     x2="2302.1"
     y1="802.73"
     y2="802.73"
     gradientUnits="userSpaceOnUse">
    <stop
       stop-color="#fff"
       offset="0"
       id="stop46" />
    <stop
       stop-color="#DADADA"
       offset="1"
       id="stop48" />
  </linearGradient>
  <path
     d="m 2329.9964,917.82313 c -0.9745,-2.12563 -5.5219,-1.79009 -11.0438,-2.34939 -10.3939,-1.11881 -19.7052,-10.96379 -20.6797,-21.70371 l -6.6045,-76.18659 c -0.1083,-1.00692 -0.3249,-2.12563 -0.6496,-3.02067 l -50.1295,-136.59895 c -2.1655,-5.92936 -8.5535,-8.8381 -14.2918,-6.71248 -30.0994,11.52309 -117.2576,48.88923 -151.5796,106.8403 0,0 -29.5581,50.34361 -67.1281,42.17673 0,0 16.2407,22.71053 45.6904,0.89505 -17.2151,28.75177 -43.525,61.86669 -74.9236,64.32785 -33.1309,2.68504 -30.4241,-8.16676 -31.1821,-25.50733 -0.8661,-18.23562 30.5325,-11.41132 28.0422,6.71242 0,0.22376 -0.1082,0.5594 -0.1082,0.78317 -4.3309,27.96861 25.985,-36.91866 -19.4888,-35.68807 -45.5821,1.23069 -29.2332,76.85787 24.9023,70.36921 14.6167,-1.78999 29.3415,-6.04125 43.3085,-11.52309 0,0 -10.0693,13.53684 1.0827,35.35232 0,0 -4.1143,-24.16488 41.143,-56.27297 27.0678,-16.10988 45.5821,-31.88423 45.5821,-31.88423 2.9234,15.43871 10.7189,38.03735 27.0678,71.04039 55.3265,111.87461 158.8337,16.33375 106.4305,-32.66739 -50.1295,-46.76363 -52.2949,31.54869 -52.2949,31.54869 0,0 6.7128,-49.22491 33.564,-19.01868 26.8513,30.20612 -33.564,81.66843 -64.9626,11.18745 -11.9099,-26.73803 -5.5219,-46.76364 7.1459,-61.30729 -2.3821,2.68492 33.0226,18.23551 26.7429,5.36996 -14.4001,-29.53494 19.2722,-34.68114 19.2722,-34.68114 6.9294,-2.57316 11.585,-3.69186 11.585,-3.69186 75.5733,-6.265 15.9159,95.09339 59.9822,130.22205 0.5414,0.44752 0.8662,1.00693 1.5158,1.23069 22.0873,7.60747 47.098,-8.27876 42.0093,-19.24244 z"
     stroke-miterlimit="10"
     id="path51"
     style="fill:#00ff00;stroke:#929282;stroke-width:12.10639381;stroke-miterlimit:10"
     inkscape:connector-curvature="0" />
  <path
     d="m 2291.127,814.45089 -42.2257,-126.86585 c 0,0 -24.5775,-98.22595 -11.4768,-98.44969 13.1008,-0.22375 106.6471,71.37602 136.963,183.25069"
     stroke-miterlimit="10"
     id="path53"
     inkscape:connector-curvature="0"
     style="fill:none;stroke:#929282;stroke-width:12.10639381;stroke-miterlimit:10" />
  <path
     d="m 2155.1385,1082.8382 c 0,0 -18.9475,0.3356 -15.5911,21.0324 3.3565,20.6968 10.6107,2.4613 10.6107,2.4613 z"
     id="path55"
     inkscape:connector-curvature="0"
     style="fill:#ffffff;stroke-width:1.10058129" />
  <path
     d="m 1797.4108,2258.3051 c -243.61,-9.1736 -487.22,87.2623 -487.22,87.2623 0,0 403.3099,-123.2859 437.9566,-451.0786"
     stroke-miterlimit="10"
     id="path57"
     inkscape:connector-curvature="0"
     style="fill:none;stroke:#929282;stroke-width:12.10639381;stroke-miterlimit:10" />
  <path
     d="m 2666.6112,3377.1636 c 0,0 36.4873,-80.8854 -67.4529,-250.9349 -46.7731,-76.5222 154.0698,-749.2245 154.0698,-749.2245"
     stroke-miterlimit="10"
     id="path59"
     inkscape:connector-curvature="0"
     style="fill:none;stroke:#929282;stroke-width:12.10639381;stroke-miterlimit:10" />
  <path
     d="m 2093.424,3418.669 c -24.0362,75.5154 -209.5046,4.2513 -220.8731,-4.475 -11.3684,-8.7262 -19.164,-42.8479 -19.164,-42.8479 0,0 193.697,75.4035 231.0505,13.3131 0,0 13.1009,21.0324 8.9866,34.0098 z"
     id="path61"
     style="fill:#6c5353;stroke-width:1.10058129"
     inkscape:connector-curvature="0" />
  <path
     d="m 2675.3811,3354.7886 c -51.537,85.3604 -247.5077,-31.2131 -247.5077,-31.2131 0,0 -6.9293,32.5557 12.8843,47.7706 19.8136,15.2149 198.4609,122.1671 227.0444,5.7056 z"
     id="path63"
     style="fill:#6c5353;stroke-width:1.10058129"
     inkscape:connector-curvature="0" />
  <path
     d="m 2844.6089,3343.2655 c 0,0 -42.4422,51.0149 -172.909,11.5231 l -12.018,43.7431 c 0,0 180.2713,47.6585 183.6277,-21.48 1.0827,-22.1512 0.1083,-22.2631 0.1083,-22.2631"
     stroke-miterlimit="10"
     id="path65"
     style="fill:#6c5353;stroke:#a3195b;stroke-width:1.10058129;stroke-miterlimit:10"
     inkscape:connector-curvature="0" />
  <path
     d="m 2349.5934,2461.917 c 0,0 -194.5631,-228.5599 -194.5631,-376.2344"
     stroke-miterlimit="10"
     id="path67"
     inkscape:connector-curvature="0"
     style="fill:none;stroke:#929282;stroke-width:12.10639381;stroke-miterlimit:10" />
  <g
     stroke-miterlimit="10"
     id="g91"
     transform="matrix(2.1942458,0,0,1.742366,-2554.3193,-588.18237)"
     style="fill:#dd55ff;stroke:#706f6f;stroke-width:6;stroke-miterlimit:10">
    <path
       d="m 2145.1,757.6 c -19.8,1.2 -37.4,22.6 -40,45.2 l -22.9,-22.6 c 12.5,-16.7 17.6,-37.1 15.5,-56.9 z"
       id="path69"
       inkscape:connector-curvature="0"
       style="fill:#dd55ff" />
    <path
       d="m 2073.7,705.8 c 1.2,18.1 -3.5,36.3 -14.4,51.8 l -23,-22.7 c 9.3,-14.1 13.6,-30.4 13.1,-46.7 z"
       id="path71"
       inkscape:connector-curvature="0"
       style="fill:#dd55ff" />
    <path
       d="m 2097.8,723.3 c 2.1,19.8 -3,40.2 -15.5,56.9 l -22.9,-22.6 c 10.9,-15.5 15.6,-33.7 14.4,-51.8 z"
       id="path73"
       inkscape:connector-curvature="0"
       style="fill:#dd55ff" />
    <path
       d="m 1951.6,617.1 c -1,9.2 -3.6,18.2 -7.8,26.6 l -23.3,-22.9 c 3.1,-6.9 5.3,-14.2 6.3,-21.6 z"
       id="path75"
       inkscape:connector-curvature="0"
       style="fill:#dd55ff" />
    <path
       d="m 2049.5,688.2 c 0.5,16.3 -3.8,32.6 -13.1,46.7 l -23,-22.7 c 7.9,-12.8 11.8,-27.2 11.9,-41.7 z"
       id="path77"
       inkscape:connector-curvature="0"
       style="fill:#dd55ff" />
    <path
       d="m 1902.2,581.2 c -1,5.7 -2.6,11.2 -4.9,16.6 l -23.4,-23.1 c 1.4,-3.8 2.6,-7.7 3.4,-11.6 z"
       id="path79"
       inkscape:connector-curvature="0"
       style="fill:#dd55ff" />
    <path
       d="m 1877.3,563.1 c -0.8,3.9 -2,7.8 -3.4,11.6 l -51.4,-50.7 -6,-5.1 3.2,2.3 -2.8,-2.8 6,5.1 z"
       id="path81"
       inkscape:connector-curvature="0"
       style="fill:#dd55ff" />
    <path
       d="m 2000.8,652.8 c -0.5,12.7 -4,25.3 -10.6,36.6 l -23.1,-22.8 c 5.3,-9.9 8.3,-20.7 9.2,-31.6 z"
       id="path83"
       inkscape:connector-curvature="0"
       style="fill:#dd55ff" />
    <path
       d="m 1927,599.2 c -1.1,7.4 -3.2,14.7 -6.3,21.6 l -23.3,-23 c 2.2,-5.4 3.8,-11 4.9,-16.6 z"
       id="path85"
       inkscape:connector-curvature="0"
       style="fill:#dd55ff" />
    <path
       d="m 1976.2,635 c -0.8,10.9 -3.9,21.7 -9.2,31.6 l -23.2,-22.9 c 4.2,-8.5 6.7,-17.5 7.8,-26.6 z"
       id="path87"
       inkscape:connector-curvature="0"
       style="fill:#dd55ff" />
    <path
       d="m 2025.2,670.6 c -0.1,14.5 -4,28.9 -11.9,41.7 l -23.1,-22.8 c 6.5,-11.4 10,-23.9 10.6,-36.6 z"
       id="path89"
       inkscape:connector-curvature="0"
       style="fill:#dd55ff" />
  </g>
</svg>
